HIERARCHY
ROOT joint_Root
{
	OFFSET 0.0 0.0 0.0
	CHANNELS 6 Xposition Yposition Zposition Zrotation Xrotation Yrotation 
	JOINT Hips
	{
		OFFSET -0.726466 93.3139 -2.00062
		CHANNELS 6 Xposition Yposition Zposition Zrotation Xrotation Yrotation 
		JOINT Spine
		{
			OFFSET 15.7357 0.0 0.0
			CHANNELS 6 Xposition Yposition Zposition Zrotation Xrotation Yrotation 
			JOINT Chest
			{
				OFFSET 8.98455 -0.406207 0.0
				CHANNELS 6 Xposition Yposition Zposition Zrotation Xrotation Yrotation 
				JOINT Neck
				{
					OFFSET 16.3773 0.0 0.0
					CHANNELS 6 Xposition Yposition Zposition Zrotation Xrotation Yrotation 
					JOINT Head
					{
						OFFSET 6.45672 0.0 0.0
						CHANNELS 6 Xposition Yposition Zposition Zrotation Xrotation Yrotation 
						End Site
						{
							OFFSET 0.0 0.0 0.0
						}
					}
				}
				JOINT Shoulder_L
				{
					OFFSET 12.9942 -0.242716 4.98039
					CHANNELS 6 Xposition Yposition Zposition Zrotation Xrotation Yrotation 
					JOINT UpperArm_L
					{
						OFFSET 5.34809 0.0 0.0
						CHANNELS 6 Xposition Yposition Zposition Zrotation Xrotation Yrotation 
						JOINT LowerArm_L
						{
							OFFSET 24.3286 1.87007e-05 0.0
							CHANNELS 6 Xposition Yposition Zposition Zrotation Xrotation Yrotation 
							JOINT Hand_L
							{
								OFFSET 22.2916 0.0 0.0
								CHANNELS 6 Xposition Yposition Zposition Zrotation Xrotation Yrotation 
								End Site
								{
									OFFSET 0.0 0.0 0.0
								}
							}
						}
					}
				}
				JOINT Shoulder_R
				{
					OFFSET 12.9945 -0.242716 -4.98039
					CHANNELS 6 Xposition Yposition Zposition Zrotation Xrotation Yrotation 
					JOINT UpperArm_R
					{
						OFFSET -5.34813 0.0 0.0
						CHANNELS 6 Xposition Yposition Zposition Zrotation Xrotation Yrotation 
						JOINT LowerArm_R
						{
							OFFSET -24.3289 0.000322201 0.0
							CHANNELS 6 Xposition Yposition Zposition Zrotation Xrotation Yrotation 
							JOINT Hand_R
							{
								OFFSET -22.2915 -0.000108084 0.0
								CHANNELS 6 Xposition Yposition Zposition Zrotation Xrotation Yrotation 
								End Site
								{
									OFFSET 0.0 0.0 0.0
								}
							}
						}
					}
				}
			}
		}
		JOINT UpperLeg_L
		{
			OFFSET -2.19248 -6.46944 0.0
			CHANNELS 6 Xposition Yposition Zposition Zrotation Xrotation Yrotation 
			JOINT LowerLeg_L
			{
				OFFSET 39.0811 0.0 -1.23785e-05
				CHANNELS 6 Xposition Yposition Zposition Zrotation Xrotation Yrotation 
				JOINT Foot_L
				{
					OFFSET 40.9854 0.0 -1.26872e-05
					CHANNELS 6 Xposition Yposition Zposition Zrotation Xrotation Yrotation 
					JOINT Toes_L
					{
						OFFSET 11.7543 0.0 0.0
						CHANNELS 6 Xposition Yposition Zposition Zrotation Xrotation Yrotation 
						End Site
						{
							OFFSET 0.0 0.0 0.0
						}
					}
				}
			}
		}
		JOINT UpperLeg_R
		{
			OFFSET -2.19251 6.46944 0.0
			CHANNELS 6 Xposition Yposition Zposition Zrotation Xrotation Yrotation 
			JOINT LowerLeg_R
			{
				OFFSET -39.0811 -0.00228153 -0.0401928
				CHANNELS 6 Xposition Yposition Zposition Zrotation Xrotation Yrotation 
				JOINT Foot_R
				{
					OFFSET -40.9854 0.0 0.0
					CHANNELS 6 Xposition Yposition Zposition Zrotation Xrotation Yrotation 
					JOINT Toes_R
					{
						OFFSET -11.7543 0.0 0.0
						CHANNELS 6 Xposition Yposition Zposition Zrotation Xrotation Yrotation 
						End Site
						{
							OFFSET 0.0 0.0 0.0
						}
					}
				}
			}
		}
	}
}
MOTION
Frames:	6
Frame Time:	0.0333333
0.000000 0.000000 0.000000 0.000000 0.000000 -0.000000 -0.334716 92.362500 -1.845130 87.672800 -1.356760 6.047900 15.735700 0.000005 -0.000001 93.821200 85.287900 -94.371400 8.984550 -0.406207 -0.000000 1.640660 0.657114 -1.108840 16.377300 -0.000001 -0.000001 2.517170 -3.582270 3.474840 6.456720 -0.000001 -0.000000 3.977180 -4.154170 -5.215480 12.994200 -0.242716 4.980390 -89.601200 -1.240660 -72.177200 5.348090 -0.000007 -0.000001 -71.276000 35.242900 -9.404640 24.328600 0.000019 0.000005 2.189600 6.929660 -17.583900 22.291600 -0.000001 0.000005 6.250910 5.433290 -4.052350 12.994500 -0.242716 -4.980390 91.618100 -3.858380 -67.226600 -5.348130 -0.000001 -0.000004 -54.460700 -47.888900 -104.314000 -24.328900 0.000322 -0.000009 5.277500 3.982070 -53.054300 -22.291500 -0.000108 -0.000004 35.506500 5.240410 1.636020 -2.192480 -6.469440 -0.000000 -174.925000 -8.958880 -1.784550 39.081100 -0.000007 -0.000012 -0.099446 0.228750 23.496500 40.985400 -0.000006 -0.000013 0.156858 3.746460 -65.756900 11.754300 -0.000000 0.000003 -0.000052 -0.000581 -16.600100 -2.192510 6.469440 -0.000001 179.761000 14.729600 -178.969000 -39.081100 -0.002282 -0.040193 -0.012770 0.045214 19.591500 -40.985400 0.000008 0.000006 3.892580 7.627850 -65.045500 -11.754300 -0.000006 -0.000006 -0.008426 -0.091475 -20.298500
0.000000 0.000000 0.000000 0.000000 0.000000 -0.000000 -0.264130 92.364000 -1.826850 87.669900 -1.829800 5.998080 15.735700 0.000005 -0.000001 93.018000 85.278400 -93.425600 8.984550 -0.406207 -0.000000 1.666080 0.518590 -0.821910 16.377300 -0.000001 -0.000001 2.457590 -3.915760 3.717450 6.456720 -0.000001 -0.000000 3.891410 -4.420810 -5.168680 12.994200 -0.242716 4.980390 -89.574800 -1.332540 -72.301500 5.348090 -0.000007 -0.000001 -71.875600 34.838000 -8.793410 24.328600 0.000019 0.000005 2.183590 7.274470 -16.758200 22.291600 -0.000001 0.000005 6.362370 5.424190 -3.740650 12.994500 -0.242716 -4.980390 91.579000 -3.762460 -67.214100 -5.348130 -0.000001 -0.000004 -48.726300 -49.220200 -101.884000 -24.328900 0.000322 -0.000009 8.781330 5.149950 -59.826500 -22.291500 -0.000108 -0.000004 32.871300 5.409590 -3.311720 -2.192480 -6.469440 -0.000000 -174.942000 -9.274540 -1.722810 39.081100 -0.000007 -0.000012 -0.100521 0.231626 23.459800 40.985400 -0.000006 -0.000013 0.160003 3.555940 -65.800100 11.754300 -0.000000 0.000003 -0.000055 -0.000613 -16.601300 -2.192510 6.469440 -0.000001 179.743000 14.387500 -179.041000 -39.081100 -0.002282 -0.040193 -0.015281 0.052298 19.580900 -40.985400 0.000008 0.000006 3.757790 7.812490 -64.989800 -11.754300 -0.000006 -0.000006 -0.008347 -0.090840 -20.272500
0.000000 0.000000 0.000000 0.000000 0.000000 -0.000000 -0.231083 92.355900 -1.822870 87.635100 -2.110270 5.939510 15.735700 0.000005 -0.000001 92.663600 85.256800 -92.942500 8.984550 -0.406207 -0.000000 1.711310 0.455333 -0.564084 16.377300 -0.000001 -0.000001 2.374260 -4.214970 3.910840 6.456720 -0.000001 -0.000000 3.864150 -4.766380 -5.178300 12.994200 -0.242716 4.980390 -89.557500 -1.397080 -72.422000 5.348090 -0.000007 -0.000001 -72.147200 34.597900 -8.638600 24.328600 0.000019 0.000005 2.206560 7.577760 -16.287200 22.291600 -0.000001 0.000005 6.334990 5.418850 -3.560170 12.994500 -0.242716 -4.980390 91.541900 -3.658010 -67.124800 -5.348130 -0.000001 -0.000004 -44.048200 -50.537200 -100.180000 -24.328900 0.000322 -0.000009 12.474700 6.003720 -64.692700 -22.291500 -0.000108 -0.000004 34.004500 5.597050 -10.982500 -2.192480 -6.469440 -0.000000 -174.919000 -9.424850 -1.784130 39.081100 -0.000007 -0.000012 -0.101104 0.232106 23.537700 40.985400 -0.000006 -0.000013 0.153430 3.439990 -65.856000 11.754300 -0.000000 0.000003 -0.000049 -0.000556 -16.599100 -2.192510 6.469440 -0.000001 179.772000 14.176500 -179.131000 -39.081100 -0.002282 -0.040193 -0.018607 0.061571 19.604100 -40.985400 0.000008 0.000006 3.601720 7.897830 -64.954100 -11.754300 -0.000006 -0.000006 -0.008135 -0.089128 -20.202600
0.000000 0.000000 0.000000 0.000000 0.000000 -0.000000 -0.225282 92.360300 -1.807910 87.636800 -2.144090 5.942740 15.735700 0.000005 -0.000001 92.508500 85.238600 -92.745400 8.984550 -0.406207 -0.000000 1.748580 0.428986 -0.479904 16.377300 -0.000001 -0.000001 2.462570 -4.465770 4.155630 6.456720 -0.000001 -0.000000 3.805050 -5.020890 -5.034780 12.994200 -0.242716 4.980390 -89.520700 -1.520270 -72.497000 5.348090 -0.000007 -0.000001 -72.145800 34.574800 -8.846520 24.328600 0.000019 0.000005 2.152820 7.422130 -16.224900 22.291600 -0.000001 0.000005 6.585130 5.422510 -3.682060 12.994500 -0.242716 -4.980390 91.589500 -3.741790 -66.964700 -5.348130 -0.000001 -0.000004 -41.686500 -51.026700 -99.395800 -24.328900 0.000322 -0.000009 13.482400 6.105130 -66.080200 -22.291500 -0.000108 -0.000004 39.314300 5.687120 -20.366300 -2.192480 -6.469440 -0.000000 -174.929000 -9.443060 -1.739140 39.081100 -0.000007 -0.000012 -0.099936 0.229892 23.495100 40.985400 -0.000006 -0.000013 0.157995 3.418940 -65.854100 11.754300 -0.000000 0.000003 -0.000051 -0.000571 -16.599700 -2.192510 6.469440 -0.000001 179.766000 14.158300 -179.108000 -39.081100 -0.002282 -0.040193 -0.017844 0.059499 19.582300 -40.985400 0.000008 0.000006 3.686080 7.918210 -64.966000 -11.754300 -0.000006 -0.000006 -0.008433 -0.091532 -20.300800
0.000000 0.000000 0.000000 0.000000 0.000000 -0.000000 -0.247794 92.360400 -1.807370 87.650700 -1.955860 5.947860 15.735700 0.000005 -0.000001 92.734600 85.232500 -93.030000 8.984550 -0.406207 -0.000000 1.759360 0.470124 -0.597447 16.377300 -0.000001 -0.000001 2.638290 -4.611180 4.365190 6.456720 -0.000001 -0.000000 3.906040 -5.268800 -4.526400 12.994200 -0.242716 4.980390 -89.483700 -1.639930 -72.521800 5.348090 -0.000007 -0.000001 -71.813700 34.565300 -9.441510 24.328600 0.000019 0.000005 2.203270 7.382750 -16.668200 22.291600 -0.000001 0.000005 6.608880 5.423590 -3.720530 12.994500 -0.242716 -4.980390 91.609200 -3.789920 -66.973000 -5.348130 -0.000001 -0.000004 -41.619900 -51.038100 -99.380600 -24.328900 0.000322 -0.000009 14.441200 7.221470 -63.988900 -22.291500 -0.000108 -0.000004 44.744900 5.675430 -23.728300 -2.192480 -6.469440 -0.000000 -174.944000 -9.279170 -1.758840 39.081100 -0.000007 -0.000012 -0.099871 0.229812 23.488700 40.985400 -0.000006 -0.000013 0.145795 3.442990 -65.836700 11.754300 -0.000000 0.000003 -0.000049 -0.000558 -16.599200 -2.192510 6.469440 -0.000001 179.751000 14.293800 -179.076000 -39.081100 -0.002282 -0.040193 -0.018262 0.060743 19.562300 -40.985400 0.000008 0.000006 3.628200 7.873790 -64.964400 -11.754300 -0.000006 -0.000006 -0.008060 -0.088522 -20.177800
0.000000 0.000000 0.000000 0.000000 0.000000 -0.000000 -0.291458 92.359800 -1.812940 87.664500 -1.537210 5.986280 15.735700 0.000005 -0.000001 93.239800 85.205900 -93.661600 8.984550 -0.406207 -0.000000 1.809200 0.563475 -0.851728 16.377300 -0.000001 -0.000001 2.736530 -4.635150 4.479860 6.456720 -0.000001 -0.000000 4.092680 -5.447860 -4.011350 12.994200 -0.242716 4.980390 -89.487000 -1.621940 -72.446400 5.348090 -0.000007 -0.000001 -70.978700 34.809400 -10.515500 24.328600 0.000019 0.000005 2.170740 6.915170 -17.474700 22.291600 -0.000001 0.000005 6.577490 5.429710 -3.928080 12.994500 -0.242716 -4.980390 91.550100 -3.670090 -67.083800 -5.348130 -0.000001 -0.000004 -43.924700 -50.954800 -100.348000 -24.328900 0.000322 -0.000009 13.749200 8.462960 -58.969000 -22.291500 -0.000108 -0.000004 43.508800 5.683550 -21.329600 -2.192480 -6.469440 -0.000000 -174.938000 -9.090250 -1.800920 39.081100 -0.000007 -0.000012 -0.100436 0.230932 23.505000 40.985400 -0.000006 -0.000013 0.163700 3.657390 -65.799300 11.754300 -0.000000 0.000003 -0.000050 -0.000566 -16.599500 -2.192510 6.469440 -0.000001 179.751000 14.593800 -179.021000 -39.081100 -0.002282 -0.040193 -0.015301 0.052357 19.580100 -40.985400 0.000008 0.000006 3.756360 7.709260 -65.020500 -11.754300 -0.000006 -0.000006 -0.008265 -0.090185 -20.245800
